# xmcd CD database file
#
# Track frame offsets:
#	150
#	14475
#	28007
#	48760
#
# Disc length: 870 seconds
#
# Revision: 4
# Processed by: cddbd v1.5PL3 Copyright (c) Steve Scherf et al.
# Submitted via: CDex 1.51
#
DISCID=27036404
DTITLE=ＭＩＬＫ　ＳＴＡＦＦ - フェロモン
DYEAR=2004
DGENRE=JPop
TTITLE0=向日葵の咲く季節
TTITLE1=Ａｌｌ　ｗａｙｓ　ｙｏｕ
TTITLE2=さよなら
TTITLE3=ｔｉｍｅ　ｅｖｅｒ　ａｇａｉｎ
EXTD=YEAR: 2004
EXTT0=
EXTT1=
EXTT2=
EXTT3=
PLAYORDER=
